<svg xmlns="http://www.w3.org/2000/svg" height="24" width="24" viewBox="0 0 24 24"><path fill="var(--icon-color)" d="M12 12Zm0 10q-2.075 0-3.9-.788-1.825-.787-3.175-2.137-1.35-1.35-2.137-3.175Q2 14.075 2 12t.788-3.9q.787-1.825 2.137-3.175 1.35-1.35 3.175-2.138Q9.925 2 12 2q1.075 0 2.075.212 1 .213 1.925.613v2.25q-.875-.5-1.887-.788Q13.1 4 12 4 8.675 4 6.338 6.337 4 8.675 4 12t2.338 5.663Q8.675 20 12 20q3.325 0 5.663-2.337Q20 15.325 20 12q0-.8-.163-1.55Q19.675 9.7 19.4 9h2.15q.225.725.338 1.462Q22 11.2 22 12q0 2.075-.788 3.9-.787 1.825-2.137 3.175-1.35 1.35-3.175 2.137Q14.075 22 12 22Zm8-15V5h-2V3h2V1h2v2h2v2h-2v2Zm-4.5 4q.625 0 1.062-.438Q17 10.125 17 9.5t-.438-1.062Q16.125 8 15.5 8t-1.062.438Q14 8.875 14 9.5t.438 1.062Q14.875 11 15.5 11Zm-7 0q.625 0 1.062-.438Q10 10.125 10 9.5t-.438-1.062Q9.125 8 8.5 8t-1.062.438Q7 8.875 7 9.5t.438 1.062Q7.875 11 8.5 11Zm3.5 6.5q1.7 0 3.088-.962Q16.475 15.575 17.1 14H6.9q.625 1.575 2.013 2.538Q10.3 17.5 12 17.5Z"/></svg>